
        <svg xmlns="http://www.w3.org/2000/svg" xmlns:xlink="http://www.w3.org/1999/xlink" version="1.1" width="3187.5" height="869.8311286736297" viewBox="0 0 3187.5 869.8311286736297">
			
			<g transform="scale(9.375) translate(10, 10)">
				<defs id="SvgjsDefs2402"/><g id="SvgjsG2403" featureKey="symbolFeature-0" transform="matrix(0.17224467911754038,0,0,0.17224467911754038,-9.893333324572515,-26.430945484937524)" fill="#000"><metadata xmlns="http://www.w3.org/2000/svg">Created by potrace 1.13, written by Peter Selinger 2001-2015</metadata><g xmlns="http://www.w3.org/2000/svg" transform="translate(0.000000,700.000000) scale(0.100000,-0.100000)" stroke="none"><path d="M2430 5464 c-169 -14 -411 -64 -481 -99 -25 -13 -71 -45 -102 -72 -118 -101 -174 -186 -447 -666 l-263 -462 -126 -128 c-69 -71 -151 -146 -181 -167 -68 -47 -151 -134 -178 -186 -11 -21 -31 -75 -45 -119 l-25 -80 14 -325 c31 -742 55 -1125 70 -1139 4 -3 4 327 1 734 l-7 740 29 77 c36 96 85 163 152 208 29 19 122 102 206 185 l154 150 261 460 c308 544 379 642 513 720 42 24 246 76 375 95 51 8 407 11 1135 11 1025 0 1064 -1 1180 -21 143 -24 266 -56 316 -81 52 -26 138 -108 202 -192 30 -39 173 -279 316 -532 l262 -460 132 -133 c73 -73 166 -157 208 -187 94 -66 142 -130 177 -237 l28 -83 -7 -305 c-10 -419 -10 -1159 0 -1135 14 34 38 430 66 1100 l14 350 -29 93 c-43 137 -112 227 -230 300 -19 11 -92 79 -162 149 l-127 128 -265 465 c-280 492 -346 589 -461 683 -80 64 -119 81 -255 111 -141 31 -239 45 -345 48 -90 2 -664 -18 -882 -31 -82 -5 -204 -5 -285 0 -79 4 -287 13 -463 19 -176 6 -338 12 -360 14 -22 2 -60 2 -85 0z"/><path d="M2412 5300 c-126 -9 -347 -35 -384 -46 -24 -7 -155 -183 -229 -307 -99 -167 -237 -468 -265 -581 l-7 -29 134 6 c500 25 1225 47 1549 47 243 0 296 14 94 25 -293 16 -1060 -6 -1594 -45 -74 -5 -140 -10 -147 -10 -20 0 86 246 174 405 106 190 283 428 326 438 128 31 349 46 847 59 571 15 570 15 1135 0 463 -12 614 -21 780 -47 100 -16 84 -3 199 -150 87 -109 172 -246 248 -401 68 -137 134 -292 126 -299 -2 -3 -65 0 -139 5 -374 27 -702 42 -1064 47 -392 6 -692 -2 -664 -17 8 -4 212 -10 454 -14 440 -7 736 -16 1193 -37 134 -6 246 -8 249 -5 6 5 -35 120 -84 241 -38 90 -136 283 -189 372 -64 106 -203 291 -223 297 -9 3 -65 12 -126 20 -215 30 -445 37 -870 29 -476 -9 -400 -9 -955 -1 -239 3 -495 2 -568 -2z"/><path d="M1381 4253 c-2 -94 59 -204 193 -353 108 -120 281 -278 292 -267 3 3 -32 47 -78 97 -322 356 -357 402 -389 513 l-18 62 0 -52z"/><path d="M5552 4220 c-20 -87 -88 -181 -286 -400 -102 -112 -186 -208 -186 -213 0 -19 72 44 205 177 211 211 289 333 283 438 l-3 53 -13 -55z"/><path d="M861 3703 c-80 -78 -113 -213 -91 -367 11 -80 15 -90 55 -134 47 -52 86 -74 238 -134 93 -37 130 -45 427 -89 179 -26 345 -48 370 -48 50 -1 90 20 90 48 0 10 -41 78 -91 151 -65 94 -99 156 -116 208 -14 40 -27 71 -30 68 -2 -2 5 -38 17 -80 16 -56 42 -110 105 -208 46 -73 81 -136 79 -140 -9 -14 -50 -9 -384 42 -310 49 -331 53 -455 101 -143 55 -214 97 -241 143 -29 49 -32 207 -5 295 27 88 75 141 128 141 99 0 285 -53 673 -193 148 -53 238 -81 225 -68 -19 17 -452 194 -580 237 -115 38 -279 74 -343 74 -13 0 -42 -19 -71 -47z"/><path d="M5911 3734 c-47 -8 -137 -32 -201 -53 -119 -40 -577 -227 -595 -242 -18 -17 123 29 415 135 182 67 354 113 448 122 63 6 70 5 99 -20 36 -31 71 -113 83 -196 9 -67 -5 -194 -26 -225 -25 -39 -84 -72 -225 -129 -133 -53 -141 -54 -465 -105 -334 -52 -379 -57 -387 -43 -3 4 34 68 81 142 64 101 90 152 103 205 26 98 23 103 -9 15 -18 -49 -59 -121 -120 -210 -50 -74 -92 -141 -92 -148 0 -6 9 -21 20 -32 28 -28 66 -26 440 29 316 47 328 50 452 98 169 67 236 118 260 198 6 22 12 85 12 140 1 137 -26 220 -95 288 -55 53 -60 54 -198 31z"/><path d="M2431 3509 c-232 -13 -368 -34 -411 -63 -68 -45 -90 -128 -66 -245 21 -98 44 -143 116 -223 130 -144 241 -190 530 -219 331 -34 762 -70 794 -67 38 4 -208 36 -621 83 -169 19 -330 40 -358 46 -142 33 -266 112 -348 224 -56 75 -78 140 -80 230 -2 79 15 115 66 142 71 36 385 60 976 73 233 5 425 11 427 13 16 16 -767 21 -1025 6z"/><path d="M3610 3511 l-125 -6 124 -7 c68 -5 199 -8 290 -8 344 0 869 -33 973 -60 21 -6 49 -25 67 -45 28 -32 31 -43 31 -98 0 -63 -17 -145 -39 -185 -25 -46 -112 -141 -171 -185 -71 -54 -203 -101 -315 -112 -95 -9 -697 -81 -815 -96 -52 -7 -87 -15 -77 -17 41 -9 919 73 1004 93 109 26 172 55 246 114 130 103 193 209 204 342 8 89 -2 133 -38 174 -42 47 -91 62 -269 81 -167 17 -854 27 -1090 15z"/><path d="M3427 3409 c-71 -11 -131 -44 -186 -104 -58 -64 -81 -124 -81 -212 0 -126 64 -229 177 -285 58 -28 77 -33 143 -32 95 0 159 27 223 92 67 69 92 129 92 227 0 61 -5 91 -22 127 -60 132 -203 209 -346 187z m154 -45 c61 -19 118 -69 154 -135 26 -47 30 -64 30 -134 0 -67 -5 -88 -27 -130 -55 -105 -146 -160 -263 -159 -117 0 -211 62 -263 173 -21 46 -24 63 -20 130 5 84 20 121 75 182 43 48 99 78 162 89 52 8 86 4 152 -16z"/><path d="M1996 3268 c9 -14 150 -28 374 -38 412 -17 713 -22 745 -11 25 8 26 9 8 10 -13 1 -89 6 -170 12 -193 14 -962 36 -957 27z"/><path d="M4550 3264 c-223 -7 -471 -17 -553 -23 -81 -6 -157 -11 -170 -12 -18 -1 -17 -2 8 -10 32 -11 333 -6 745 11 237 10 365 24 376 41 3 5 4 8 2 8 -2 -1 -185 -8 -408 -15z"/><path d="M2105 3021 c6 -6 35 -15 65 -21 130 -22 972 -51 983 -33 11 18 -313 39 -738 48 -148 4 -281 9 -295 11 -18 4 -22 2 -15 -5z"/><path d="M4580 3019 c-454 -14 -793 -36 -784 -50 7 -12 185 -11 495 1 342 14 502 27 541 44 18 8 26 14 18 14 -8 -1 -130 -5 -270 -9z"/><path d="M914 2637 c-63 -53 -124 -208 -124 -318 0 -42 5 -51 60 -111 33 -36 83 -80 111 -99 l51 -32 257 -5 c306 -5 416 5 472 44 43 29 92 91 169 207 63 98 49 91 -26 -11 -61 -83 -124 -153 -165 -183 -43 -30 -277 -44 -509 -29 -126 8 -195 17 -215 27 -16 9 -63 49 -103 90 -70 70 -73 75 -67 111 22 134 66 245 112 281 49 40 187 25 730 -78 618 -118 702 -121 166 -8 -535 113 -614 127 -758 134 -129 6 -131 5 -161 -20z"/><path d="M5710 2635 c-205 -36 -921 -187 -915 -193 6 -6 197 25 475 79 397 75 547 100 657 106 l102 6 29 -31 c49 -53 89 -155 105 -275 5 -35 2 -41 -66 -111 -40 -40 -85 -80 -102 -89 -39 -19 -356 -41 -485 -33 -226 15 -218 13 -278 70 -30 28 -85 93 -123 144 -38 50 -71 92 -74 92 -13 0 117 -189 166 -240 80 -84 84 -85 460 -85 l317 0 57 39 c31 22 81 67 111 100 63 71 67 94 34 220 -23 91 -62 168 -103 202 -26 22 -37 24 -130 23 -59 0 -159 -11 -237 -24z"/><path d="M2474 2390 c-99 -15 -152 -50 -449 -299 -119 -100 -179 -139 -265 -172 -63 -24 -60 -24 -557 -9 -278 8 -423 6 -410 -6 9 -9 284 -33 682 -59 l219 -14 76 25 c41 14 96 37 122 51 47 26 64 39 334 259 82 66 164 129 182 138 43 22 149 33 472 46 146 6 317 15 380 20 63 6 124 10 135 10 17 0 17 2 5 10 -18 11 -848 11 -926 0z"/><path d="M3530 2390 c-12 -8 -11 -10 6 -10 12 0 79 -5 150 -10 71 -6 273 -17 450 -25 231 -10 332 -19 364 -30 50 -18 82 -41 315 -234 176 -146 254 -195 366 -229 64 -20 72 -20 285 -6 261 16 574 42 641 51 l48 7 -40 7 c-32 6 -359 1 -805 -13 -75 -2 -171 26 -243 72 -25 16 -114 85 -196 154 -206 172 -287 231 -346 252 -45 17 -94 19 -515 21 -300 2 -470 0 -480 -7z"/><path d="M576 1878 c-7 -28 10 -327 25 -423 18 -124 17 -121 72 -159 l52 -35 298 -11 299 -10 62 49 63 50 7 202 c4 111 4 205 -1 209 -8 8 -313 43 -483 57 -59 4 -122 19 -214 50 -149 50 -171 52 -180 21z m113 -47 l92 -48 5 -94 c7 -133 31 -286 50 -314 l16 -25 -56 0 c-75 0 -114 20 -120 63 -29 194 -60 372 -71 415 -7 28 -12 52 -10 52 1 0 44 -22 94 -49z m229 -94 l62 -9 0 -57 c1 -89 28 -271 45 -297 l15 -24 -75 0 c-72 0 -75 1 -90 30 -8 16 -15 46 -15 67 0 40 -24 223 -36 282 -7 31 -5 34 12 26 10 -4 47 -12 82 -18z m197 -17 l42 0 7 -117 c6 -120 18 -204 31 -235 6 -16 0 -18 -58 -18 -61 0 -65 1 -75 28 -5 15 -17 88 -26 162 -9 74 -19 148 -23 164 -6 28 -5 29 27 23 18 -4 52 -7 75 -7z m183 -10 c48 0 92 -4 98 -8 14 -9 -17 -294 -34 -315 -19 -23 -66 -39 -103 -35 -40 4 -42 11 -59 183 -6 66 -14 135 -17 154 -5 29 -3 33 11 28 10 -4 57 -7 104 -7z"/><path d="M6190 1856 c-107 -37 -145 -45 -265 -55 -77 -7 -205 -20 -285 -30 l-145 -16 3 -205 4 -205 31 -27 c18 -15 48 -39 67 -53 l36 -25 298 10 299 10 48 36 c27 20 51 45 54 57 24 112 55 497 42 531 -10 25 -50 19 -187 -28z m166 8 c-10 -27 -56 -281 -69 -383 -11 -88 -13 -95 -42 -112 -20 -13 -49 -19 -86 -19 l-57 0 18 34 c18 36 37 156 48 310 l7 88 85 48 c95 54 105 57 96 34z m-232 -165 c-7 -34 -18 -112 -24 -173 -6 -61 -16 -126 -23 -143 l-11 -33 -80 0 c-76 0 -78 1 -63 18 20 22 47 186 47 289 l0 71 58 7 c32 3 65 11 73 16 32 20 36 10 23 -52z m-190 -34 c-7 -35 -18 -112 -24 -170 -13 -142 -15 -145 -95 -145 -63 0 -75 6 -56 25 12 12 31 182 31 274 l0 70 58 4 c31 2 67 4 78 5 21 2 21 1 8 -63z m-165 18 c-4 -21 -13 -94 -19 -163 -14 -158 -19 -170 -66 -170 -52 0 -101 33 -107 73 -13 77 -29 257 -24 271 5 12 28 16 104 19 54 1 103 4 109 5 9 1 9 -9 3 -35z"/><path d="M2785 1869 l-630 -5 -177 -42 c-98 -23 -205 -43 -240 -43 -54 -1 -133 -13 -118 -18 3 -1 50 -6 105 -10 87 -8 121 -5 265 19 l165 27 655 -8 c360 -4 961 -4 1335 1 l680 8 175 -43 c156 -37 184 -42 247 -36 40 4 75 9 78 13 4 3 -29 9 -72 13 -53 5 -133 25 -248 62 l-170 55 -420 4 c-876 9 -1017 9 -1630 3z"/></g></g><g id="SvgjsG2404" featureKey="nameFeature-0" transform="matrix(0.47223269450487626,0,0,0.47223269450487626,119.0366450960462,22.032110936925346)" fill="#000"><path d="M17.04 40.6 c-5.32 0 -8.12 -1.44 -10.64 -3.68 c-2.96 -2.64 -4.36 -7.24 -4.36 -10.68 c0 -4.12 1.32 -7.84 4.12 -10.84 c2.28 -2.44 5.6 -4.32 10.56 -4.32 c3.64 0 6.64 0.92 8.04 1.68 c0.56 0.28 0.76 0.24 0.84 -0.04 l0.32 -1 c0.08 -0.24 0.16 -0.24 0.76 -0.24 s0.68 0.08 0.68 0.64 c0 0.76 0.72 7.56 0.92 8.76 c0.04 0.28 0 0.48 -0.2 0.52 l-0.88 0.24 c-0.2 0.08 -0.36 -0.08 -0.48 -0.44 c-0.44 -1.6 -1.52 -3.64 -3.2 -5.36 c-1.72 -1.68 -3.84 -3 -6.88 -3 c-5.84 0 -8.32 5.32 -8.28 11.24 c0 2.52 0.72 7.44 3.56 10.44 c2.6 2.68 4.88 3 6.24 3 c4.56 0 7.96 -2.08 9.44 -4.28 c0.2 -0.32 0.4 -0.48 0.6 -0.32 l0.68 0.6 c0.12 0.08 0.16 0.24 0 0.48 c-2.32 3.36 -6.2 6.6 -11.84 6.6 z M38.480000000000004 24.52 l0 7.48 c0 1.6 0 4.2 0.12 5.36 c0.04 0.68 0.16 1.24 1 1.24 l1.36 0 c0.36 0 0.44 0.12 0.44 0.36 l0 0.76 c0 0.24 -0.08 0.4 -0.24 0.4 c-0.28 0 -2.04 -0.12 -5.2 -0.12 c-3.36 0 -4.96 0.12 -5.32 0.12 c-0.2 0 -0.28 -0.16 -0.28 -0.48 l0 -0.68 c0 -0.28 0.08 -0.36 0.52 -0.36 l1.2 0 c0.44 0 1.08 -0.28 1.08 -1.72 l0 -12.72 c0 -2.84 0 -6.08 -0.08 -7.12 c-0.08 -1.36 -0.92 -1.92 -2.2 -2.32 l-0.72 -0.24 c-0.28 -0.12 -0.32 -0.24 -0.32 -0.44 l0 -0.6 c0 -0.12 0.08 -0.28 0.36 -0.32 c1.8 -0.36 5.96 -1.72 7.12 -2.32 c0.44 -0.2 0.68 -0.28 0.88 -0.28 c0.24 0 0.4 0.2 0.36 0.72 c-0.04 2.2 -0.08 10.52 -0.08 13.28 z M57.24 30.04 l-9.16 0 l0 1.08 c0 4.16 2.36 6.2 5.28 6.2 c1.96 0 3.56 -0.92 4.36 -2.2 c0.08 -0.2 0.24 -0.24 0.4 -0.12 l0.68 0.36 c0.16 0.08 0.28 0.28 -0.08 0.96 c-0.72 1.48 -3.32 4.24 -7.08 4.24 c-2.56 0 -4.68 -0.44 -6 -1.88 c-2.04 -2.2 -2.72 -3.76 -2.76 -6.88 c0 -1.12 0 -3.24 1.8 -5.88 c1.44 -2.12 3.88 -3.28 6.96 -3.28 c6.48 0 6.84 6.2 6.84 6.84 c0 0.52 -0.36 0.56 -1.24 0.56 z M48.12 28.52 l3.84 0 c0.88 0 1.28 -0.2 1.28 -0.8 c0 -1.76 -0.72 -3.48 -1.96 -3.48 c-1.88 0 -2.88 1.48 -3.16 4.28 z M69.88 29.36 l0 -2.12 c0 -0.8 -0.08 -1.72 -0.6 -2.2 c-0.4 -0.36 -1.04 -0.48 -1.68 -0.48 c-0.72 0 -1.4 0.16 -2.12 0.64 c-0.6 0.4 -0.12 1.08 -0.12 2.36 c0 1.36 -1 2.28 -2.6 2.28 c-0.92 0 -1.72 -0.56 -1.72 -1.44 s0.28 -2.08 1.12 -2.8 c1.68 -1.52 4.44 -2.96 7.68 -2.96 c2.56 0 3.24 0.4 4.08 1.16 c0.88 0.8 1.12 1.96 1.12 3.4 l0.08 7.96 c0.04 2.08 0.16 2.72 0.92 2.72 c0.56 0 1 -0.44 1.16 -0.72 c0.16 -0.24 0.28 -0.28 0.4 -0.2 l0.56 0.32 c0.16 0.08 0.28 0.2 0.12 0.56 c-0.36 0.84 -1.56 2.72 -4.04 2.72 c-1.56 0 -3.04 -0.56 -3.8 -2.44 l-0.2 0 c-1 0.92 -1.84 1.48 -3.44 2.08 c-0.8 0.28 -1.72 0.36 -2.88 0.36 c-1.4 0 -2.64 -1.52 -2.64 -3.68 c0 -1.76 0.84 -3.6 3.44 -4.88 c3.12 -1.48 4.12 -1.92 5.16 -2.64 z M69.92 36.64 l0 -5.68 c-1.96 1.12 -3.6 1.72 -3.6 4.48 c0 1.84 0.84 2.6 1.72 2.64 c1.08 -0.08 1.88 -1.08 1.88 -1.44 z M85.92 23.12 l0.44 1.72 l0.32 0 c0.44 -0.52 1.16 -1.04 1.92 -1.44 c0.88 -0.48 1.76 -0.76 3.08 -0.76 c1.56 0 3.08 0.16 4.12 1.12 c1.68 1.56 1.8 2.56 1.8 4.56 l0 4.24 c0 1.36 -0.08 3.24 -0.16 4.64 c-0.04 1.2 0.6 1.4 0.96 1.4 l1.08 0 c0.36 0 0.44 0.12 0.44 0.36 l0 0.72 c0 0.28 -0.08 0.44 -0.32 0.44 c-0.28 0 -1.52 -0.12 -4.72 -0.12 c-2.64 0 -3.92 0.12 -4.2 0.12 c-0.24 0 -0.32 -0.12 -0.32 -0.44 l0 -0.72 c0 -0.28 0.12 -0.36 0.52 -0.36 l0.44 0 c0.28 0 0.64 -0.2 0.72 -0.92 c0.16 -1.04 0.24 -2.32 0.24 -4.16 l0 -4.28 c0 -1.52 -0.12 -2.56 -0.96 -3.32 c-0.72 -0.64 -1.28 -0.72 -1.96 -0.72 c-0.72 0 -1.24 0.2 -2.04 0.8 c-0.48 0.36 -0.8 1.44 -0.8 3.08 l-0.08 8.2 c0 0.72 0.28 1.32 0.64 1.32 l0.52 0 c0.32 0 0.4 0.12 0.4 0.4 l0 0.76 c0 0.24 -0.08 0.36 -0.28 0.36 c-0.28 0 -1.36 -0.12 -4 -0.12 c-2.84 0 -4.12 0.12 -4.36 0.12 c-0.2 0 -0.28 -0.12 -0.28 -0.36 l0 -0.8 c0 -0.24 0.08 -0.36 0.4 -0.36 l0.6 0 c0.44 0 1.12 -0.12 1.12 -0.8 l0 -8.88 c0 -1.2 -0.68 -1.88 -1.6 -2.32 l-0.36 -0.16 c-0.24 -0.12 -0.28 -0.28 -0.28 -0.44 l0 -0.36 c0 -0.2 0.16 -0.32 0.36 -0.4 l5.12 -2.32 c0.32 -0.12 0.6 -0.28 0.92 -0.28 c0.24 0 0.48 0.2 0.56 0.48 z M116.52 23.12 l0.44 1.72 l0.32 0 c0.44 -0.52 1.16 -1.04 1.92 -1.44 c0.88 -0.48 1.76 -0.76 3.08 -0.76 c1.56 0 3.08 0.16 4.12 1.12 c1.68 1.56 1.8 2.56 1.8 4.56 l0 4.24 c0 1.36 -0.08 3.24 -0.16 4.64 c-0.04 1.2 0.6 1.4 0.96 1.4 l1.08 0 c0.36 0 0.44 0.12 0.44 0.36 l0 0.72 c0 0.28 -0.08 0.44 -0.32 0.44 c-0.28 0 -1.52 -0.12 -4.72 -0.12 c-2.64 0 -3.92 0.12 -4.2 0.12 c-0.24 0 -0.32 -0.12 -0.32 -0.44 l0 -0.72 c0 -0.28 0.12 -0.36 0.52 -0.36 l0.44 0 c0.28 0 0.64 -0.2 0.72 -0.92 c0.16 -1.04 0.24 -2.32 0.24 -4.16 l0 -4.28 c0 -1.52 -0.12 -2.56 -0.96 -3.32 c-0.72 -0.64 -1.28 -0.72 -1.96 -0.72 c-0.72 0 -1.24 0.2 -2.04 0.8 c-0.48 0.36 -0.8 1.44 -0.8 3.08 l-0.08 8.2 c0 0.72 0.28 1.32 0.64 1.32 l0.52 0 c0.32 0 0.4 0.12 0.4 0.4 l0 0.76 c0 0.24 -0.08 0.36 -0.28 0.36 c-0.28 0 -1.36 -0.12 -4 -0.12 c-2.84 0 -4.12 0.12 -4.36 0.12 c-0.2 0 -0.28 -0.12 -0.28 -0.36 l0 -0.8 c0 -0.24 0.08 -0.36 0.4 -0.36 l0.6 0 c0.44 0 1.12 -0.12 1.12 -0.8 l0 -8.88 c0 -1.2 -0.68 -1.88 -1.6 -2.32 l-0.36 -0.16 c-0.24 -0.12 -0.28 -0.28 -0.28 -0.44 l0 -0.36 c0 -0.2 0.16 -0.32 0.36 -0.4 l5.12 -2.32 c0.32 -0.12 0.6 -0.28 0.92 -0.28 c0.24 0 0.48 0.2 0.56 0.48 z M135.92 22.76 l-1.36 0 c-0.36 -2.84 -1.72 -8.04 -1.72 -9.4 c0 -1.12 0.8 -2.28 2.4 -2.28 s2.28 1.16 2.28 2.24 c0 1.4 -1.28 6.6 -1.6 9.44 z M164.2 40.6 c-5.32 0 -8.12 -1.44 -10.64 -3.68 c-2.96 -2.64 -4.36 -7.24 -4.36 -10.68 c0 -4.12 1.32 -7.84 4.12 -10.84 c2.28 -2.44 5.6 -4.32 10.56 -4.32 c3.64 0 6.64 0.92 8.04 1.68 c0.56 0.28 0.76 0.24 0.84 -0.04 l0.32 -1 c0.08 -0.24 0.16 -0.24 0.76 -0.24 s0.68 0.08 0.68 0.64 c0 0.76 0.72 7.56 0.92 8.76 c0.04 0.28 0 0.48 -0.2 0.52 l-0.88 0.24 c-0.2 0.08 -0.36 -0.08 -0.48 -0.44 c-0.44 -1.6 -1.52 -3.64 -3.2 -5.36 c-1.72 -1.68 -3.84 -3 -6.88 -3 c-5.84 0 -8.32 5.32 -8.28 11.24 c0 2.52 0.72 7.44 3.56 10.44 c2.6 2.68 4.88 3 6.24 3 c4.56 0 7.96 -2.08 9.44 -4.28 c0.2 -0.32 0.4 -0.48 0.6 -0.32 l0.68 0.6 c0.12 0.08 0.16 0.24 0 0.48 c-2.32 3.36 -6.2 6.6 -11.84 6.6 z M185.64000000000001 24.52 l0 7.48 c0 1.6 0 4.2 0.12 5.36 c0.04 0.68 0.16 1.24 1 1.24 l1.36 0 c0.36 0 0.44 0.12 0.44 0.36 l0 0.76 c0 0.24 -0.08 0.4 -0.24 0.4 c-0.28 0 -2.04 -0.12 -5.2 -0.12 c-3.36 0 -4.96 0.12 -5.32 0.12 c-0.2 0 -0.28 -0.16 -0.28 -0.48 l0 -0.68 c0 -0.28 0.08 -0.36 0.52 -0.36 l1.2 0 c0.44 0 1.08 -0.28 1.08 -1.72 l0 -12.72 c0 -2.84 0 -6.08 -0.08 -7.12 c-0.08 -1.36 -0.92 -1.92 -2.2 -2.32 l-0.72 -0.24 c-0.28 -0.12 -0.32 -0.24 -0.32 -0.44 l0 -0.6 c0 -0.12 0.08 -0.28 0.36 -0.32 c1.8 -0.36 5.96 -1.72 7.12 -2.32 c0.44 -0.2 0.68 -0.28 0.88 -0.28 c0.24 0 0.4 0.2 0.36 0.72 c-0.04 2.2 -0.08 10.52 -0.08 13.28 z M199 29.36 l0 -2.12 c0 -0.8 -0.08 -1.72 -0.6 -2.2 c-0.4 -0.36 -1.04 -0.48 -1.68 -0.48 c-0.72 0 -1.4 0.16 -2.12 0.64 c-0.6 0.4 -0.12 1.08 -0.12 2.36 c0 1.36 -1 2.28 -2.6 2.28 c-0.92 0 -1.72 -0.56 -1.72 -1.44 s0.28 -2.08 1.12 -2.8 c1.68 -1.52 4.44 -2.96 7.68 -2.96 c2.56 0 3.24 0.4 4.08 1.16 c0.88 0.8 1.12 1.96 1.12 3.4 l0.08 7.96 c0.04 2.08 0.16 2.72 0.92 2.72 c0.56 0 1 -0.44 1.16 -0.72 c0.16 -0.24 0.28 -0.28 0.4 -0.2 l0.56 0.32 c0.16 0.08 0.28 0.2 0.12 0.56 c-0.36 0.84 -1.56 2.72 -4.04 2.72 c-1.56 0 -3.04 -0.56 -3.8 -2.44 l-0.2 0 c-1 0.92 -1.84 1.48 -3.44 2.08 c-0.8 0.28 -1.72 0.36 -2.88 0.36 c-1.4 0 -2.64 -1.52 -2.64 -3.68 c0 -1.76 0.84 -3.6 3.44 -4.88 c3.12 -1.48 4.12 -1.92 5.16 -2.64 z M199.04 36.64 l0 -5.68 c-1.96 1.12 -3.6 1.72 -3.6 4.48 c0 1.84 0.84 2.6 1.72 2.64 c1.08 -0.08 1.88 -1.08 1.88 -1.44 z M220.20000000000002 24.240000000000002 l0.56 2.96 c0.04 0.2 0 0.28 -0.16 0.36 l-0.72 0.32 c-0.12 0.08 -0.24 0.04 -0.4 -0.12 l-2.24 -2.4 c-0.52 -0.52 -1.28 -1.16 -2.48 -1.16 s-2.36 0.8 -2.36 2.16 c0.08 1.4 0.56 1.8 3.52 2.6 c1.96 0.52 2.92 0.8 4.12 2.08 c1.04 1.04 1.28 2 1.28 3.4 c0 3.56 -2.8 6.12 -7.16 6.12 c-2.24 0 -4.2 -0.8 -4.68 -1.16 c-0.16 -0.12 -0.2 -0.28 -0.24 -0.52 l-0.52 -3.84 c0 -0.2 0.12 -0.28 0.28 -0.32 l0.72 -0.2 c0.12 -0.04 0.2 0 0.28 0.16 l1.6 2.36 c0.72 1.04 1.64 2.04 3.48 2.04 c1.48 0 2.36 -1.04 2.36 -2.44 c0 -1.6 -1.16 -2.12 -3.76 -2.92 c-2.84 -0.84 -4.88 -2.2 -4.88 -5.08 c0 -1.88 0.56 -3.44 2.08 -4.56 c1.6 -1.16 2.72 -1.44 4.4 -1.44 c2.16 0 3.48 0.48 4.2 0.84 c0.6 0.28 0.68 0.48 0.72 0.76 z M235.72000000000003 24.240000000000002 l0.56 2.96 c0.04 0.2 0 0.28 -0.16 0.36 l-0.72 0.32 c-0.12 0.08 -0.24 0.04 -0.4 -0.12 l-2.24 -2.4 c-0.52 -0.52 -1.28 -1.16 -2.48 -1.16 s-2.36 0.8 -2.36 2.16 c0.08 1.4 0.56 1.8 3.52 2.6 c1.96 0.52 2.92 0.8 4.12 2.08 c1.04 1.04 1.28 2 1.28 3.4 c0 3.56 -2.8 6.12 -7.16 6.12 c-2.24 0 -4.2 -0.8 -4.68 -1.16 c-0.16 -0.12 -0.2 -0.28 -0.24 -0.52 l-0.52 -3.84 c0 -0.2 0.12 -0.28 0.28 -0.32 l0.72 -0.2 c0.12 -0.04 0.2 0 0.28 0.16 l1.6 2.36 c0.72 1.04 1.64 2.04 3.48 2.04 c1.48 0 2.36 -1.04 2.36 -2.44 c0 -1.6 -1.16 -2.12 -3.76 -2.92 c-2.84 -0.84 -4.88 -2.2 -4.88 -5.08 c0 -1.88 0.56 -3.44 2.08 -4.56 c1.6 -1.16 2.72 -1.44 4.4 -1.44 c2.16 0 3.48 0.48 4.2 0.84 c0.6 0.28 0.68 0.48 0.72 0.76 z M239.88000000000002 50.88 c-1.4 0 -2.48 -0.84 -2.48 -2.32 c0 -1.32 0.96 -2.28 1.96 -2.28 c0.56 0 1.12 0.12 1.68 0.44 c0.48 0.32 0.96 0.36 1.28 0.16 c0.4 -0.28 2.48 -4.64 2.96 -6.04 c-0.32 -1.4 -5.32 -13.88 -5.6 -14.52 c-0.4 -1 -0.84 -1.72 -1.4 -1.72 l-0.64 0 c-0.28 0 -0.32 -0.12 -0.32 -0.36 l0 -0.88 c0 -0.16 0.04 -0.28 0.32 -0.28 c0.36 0 1.32 0.12 4.8 0.12 c2.44 0 3.68 -0.12 4.12 -0.12 c0.32 0 0.36 0.12 0.36 0.36 l0 0.84 c0 0.2 -0.04 0.32 -0.24 0.32 l-0.56 0 c-0.44 0 -0.8 0.28 -0.72 0.92 c0.12 0.68 2.36 8.4 2.64 9.28 l0.2 0 c1 -2.28 3.16 -7.84 3.4 -8.6 c0.32 -1.08 -0.2 -1.6 -1 -1.6 l-0.64 0 c-0.24 0 -0.28 -0.12 -0.28 -0.32 l0 -0.88 c0 -0.2 0.04 -0.32 0.24 -0.32 c0.52 0 1.36 0.12 3.6 0.12 c1.68 0 2.6 -0.12 3.04 -0.12 c0.24 0 0.24 0.16 0.24 0.4 l0 0.76 c0 0.24 0 0.36 -0.2 0.36 l-0.44 0 c-0.44 0 -1 0.16 -1.48 0.8 c-0.72 0.96 -3.52 6.92 -6.56 13.48 c-2.04 4.36 -3.76 8.08 -4.52 9.36 c-0.64 1.08 -1.52 2.64 -3.76 2.64 z M268.68000000000006 24.64 l0 -3 c0 -1.04 -0.12 -6.72 -0.2 -7.32 c-0.12 -0.96 -0.64 -1.12 -1.32 -1.12 l-2 0 c-0.2 0 -0.32 -0.04 -0.32 -0.28 l0 -1.16 c0 -0.16 0.12 -0.2 0.28 -0.2 c0.52 0 2.28 0.12 6.28 0.12 c1.04 0 5.04 -0.12 5.96 -0.12 c5.44 0 9.76 0.48 13.56 3.64 c2.64 2.2 4.48 5.52 4.48 10.16 c0 4.6 -1.32 7.64 -3.96 10.52 c-3.88 4.2 -10.72 4.24 -13.24 4.24 c-0.64 0 -5.36 -0.12 -7.56 -0.12 c-3.48 0 -5.08 0.12 -5.64 0.12 c-0.2 0 -0.28 -0.08 -0.28 -0.36 l0 -1.04 c0 -0.16 0.12 -0.24 0.32 -0.24 l2.08 0 c0.76 0 1.2 -0.32 1.28 -0.96 c0.12 -0.84 0.28 -9.84 0.28 -12.88 z M274.68000000000006 22.68 l0 2.84 c0 0.52 0.04 7.32 0.08 9.8 c0 0.8 0.16 1.44 0.68 2.2 c0.48 0.72 1.84 0.96 3.2 0.96 c2.32 0 5.4 -1.16 7.48 -3.92 c1.6 -2.12 2.84 -5.4 2.84 -9.12 c0 -3.28 -1.36 -6.64 -3.24 -8.72 c-2.12 -2.36 -5.64 -3.64 -7.96 -3.64 c-1.12 0 -1.72 0.04 -2.24 0.32 c-0.6 0.28 -0.76 0.92 -0.8 1.72 c-0.04 1.68 -0.04 6.92 -0.04 7.56 z M313.00000000000006 30.04 l-9.16 0 l0 1.08 c0 4.16 2.36 6.2 5.28 6.2 c1.96 0 3.56 -0.92 4.36 -2.2 c0.08 -0.2 0.24 -0.24 0.4 -0.12 l0.68 0.36 c0.16 0.08 0.28 0.28 -0.08 0.96 c-0.72 1.48 -3.32 4.24 -7.08 4.24 c-2.56 0 -4.68 -0.44 -6 -1.88 c-2.04 -2.2 -2.72 -3.76 -2.76 -6.88 c0 -1.12 0 -3.24 1.8 -5.88 c1.44 -2.12 3.88 -3.28 6.96 -3.28 c6.48 0 6.84 6.2 6.84 6.84 c0 0.52 -0.36 0.56 -1.24 0.56 z M303.88000000000005 28.52 l3.84 0 c0.88 0 1.28 -0.2 1.28 -0.8 c0 -1.76 -0.72 -3.48 -1.96 -3.48 c-1.88 0 -2.88 1.48 -3.16 4.28 z M323.8400000000001 31 l0 3.16 c0 3.28 1.24 4 2.2 4 c0.84 0 1.44 -0.12 2.08 -0.48 c0.12 -0.08 0.24 -0.08 0.36 0.16 l0.28 0.6 c0.12 0.2 0 0.4 -0.16 0.52 c-0.68 0.48 -2.48 1.6 -5.6 1.6 c-2.72 0 -4.44 -1.88 -4.44 -3.72 c0 -1.4 0.08 -4.44 0.08 -5.96 l0.04 -5.28 l-2.2 0 c-0.36 0 -0.64 -0.16 -0.64 -0.56 s0.24 -0.68 0.88 -1 c1.32 -0.6 4.68 -3.6 6.16 -5.28 c0.28 -0.32 0.56 -0.4 0.76 -0.4 c0.36 0 0.52 0.28 0.52 0.6 l-0.16 4.24 l5.08 0 c0.24 0 0.36 0.2 0.28 0.36 l-0.4 1.72 c-0.04 0.16 -0.12 0.32 -0.36 0.32 l-4.68 0 c-0.08 1.64 -0.08 3.56 -0.08 5.4 z M339.2800000000001 29.36 l0 -2.12 c0 -0.8 -0.08 -1.72 -0.6 -2.2 c-0.4 -0.36 -1.04 -0.48 -1.68 -0.48 c-0.72 0 -1.4 0.16 -2.12 0.64 c-0.6 0.4 -0.12 1.08 -0.12 2.36 c0 1.36 -1 2.28 -2.6 2.28 c-0.92 0 -1.72 -0.56 -1.72 -1.44 s0.28 -2.08 1.12 -2.8 c1.68 -1.52 4.44 -2.96 7.68 -2.96 c2.56 0 3.24 0.4 4.08 1.16 c0.88 0.8 1.12 1.96 1.12 3.4 l0.08 7.96 c0.04 2.08 0.16 2.72 0.92 2.72 c0.56 0 1 -0.44 1.16 -0.72 c0.16 -0.24 0.28 -0.28 0.4 -0.2 l0.56 0.32 c0.16 0.08 0.28 0.2 0.12 0.56 c-0.36 0.84 -1.56 2.72 -4.04 2.72 c-1.56 0 -3.04 -0.56 -3.8 -2.44 l-0.2 0 c-1 0.92 -1.84 1.48 -3.44 2.08 c-0.8 0.28 -1.72 0.36 -2.88 0.36 c-1.4 0 -2.64 -1.52 -2.64 -3.68 c0 -1.76 0.84 -3.6 3.44 -4.88 c3.12 -1.48 4.12 -1.92 5.16 -2.64 z M339.32000000000005 36.64 l0 -5.68 c-1.96 1.12 -3.6 1.72 -3.6 4.48 c0 1.84 0.84 2.6 1.72 2.64 c1.08 -0.08 1.88 -1.08 1.88 -1.44 z M355.7200000000001 16.76 c0 1.28 -0.88 2.68 -3.04 2.72 c-1.6 0.04 -2.8 -1.04 -2.8 -2.6 c0 -1.28 1.32 -2.44 3 -2.44 c1.88 0 2.84 1.2 2.84 2.32 z M358.5200000000001 39.72 c0 0.28 -0.08 0.4 -0.36 0.4 c-0.32 0 -2.16 -0.12 -5.64 -0.12 c-2.32 0 -3.88 0.12 -4.32 0.12 c-0.2 0 -0.32 -0.08 -0.32 -0.4 l0 -0.8 c0 -0.24 0.12 -0.32 0.4 -0.32 l1.48 0 c0.44 0 0.72 -0.16 0.76 -0.8 c0.08 -1.2 0.08 -2.44 0.08 -3.56 l-0.08 -5.6 c0 -1.12 -0.24 -1.92 -1.92 -2.52 c-0.44 -0.16 -0.48 -0.32 -0.48 -0.56 l0 -0.44 c0 -0.12 0.08 -0.2 0.44 -0.32 l5.96 -1.92 c0.44 -0.16 0.8 -0.24 1.08 -0.24 c0.32 0 0.44 0.2 0.4 0.48 c-0.08 0.68 -0.08 3.2 -0.08 6.72 l0 4.28 c0 1.56 0 3 0.04 3.44 c0.08 0.76 0.28 1.04 0.72 1.04 l1.44 0 c0.32 0 0.4 0.12 0.4 0.36 l0 0.76 z M367.36000000000007 24.52 l0 7.48 c0 1.6 0 4.2 0.12 5.36 c0.04 0.68 0.16 1.24 1 1.24 l1.36 0 c0.36 0 0.44 0.12 0.44 0.36 l0 0.76 c0 0.24 -0.08 0.4 -0.24 0.4 c-0.28 0 -2.04 -0.12 -5.2 -0.12 c-3.36 0 -4.96 0.12 -5.32 0.12 c-0.2 0 -0.28 -0.16 -0.28 -0.48 l0 -0.68 c0 -0.28 0.08 -0.36 0.52 -0.36 l1.2 0 c0.44 0 1.08 -0.28 1.08 -1.72 l0 -12.72 c0 -2.84 0 -6.08 -0.08 -7.12 c-0.08 -1.36 -0.92 -1.92 -2.2 -2.32 l-0.72 -0.24 c-0.28 -0.12 -0.32 -0.24 -0.32 -0.44 l0 -0.6 c0 -0.12 0.08 -0.28 0.36 -0.32 c1.8 -0.36 5.96 -1.72 7.12 -2.32 c0.44 -0.2 0.68 -0.28 0.88 -0.28 c0.24 0 0.4 0.2 0.36 0.72 c-0.04 2.2 -0.08 10.52 -0.08 13.28 z M378.92000000000013 16.76 c0 1.28 -0.88 2.68 -3.04 2.72 c-1.6 0.04 -2.8 -1.04 -2.8 -2.6 c0 -1.28 1.32 -2.44 3 -2.44 c1.88 0 2.84 1.2 2.84 2.32 z M381.72000000000014 39.72 c0 0.28 -0.08 0.4 -0.36 0.4 c-0.32 0 -2.16 -0.12 -5.64 -0.12 c-2.32 0 -3.88 0.12 -4.32 0.12 c-0.2 0 -0.32 -0.08 -0.32 -0.4 l0 -0.8 c0 -0.24 0.12 -0.32 0.4 -0.32 l1.48 0 c0.44 0 0.72 -0.16 0.76 -0.8 c0.08 -1.2 0.08 -2.44 0.08 -3.56 l-0.08 -5.6 c0 -1.12 -0.24 -1.92 -1.92 -2.52 c-0.44 -0.16 -0.48 -0.32 -0.48 -0.56 l0 -0.44 c0 -0.12 0.08 -0.2 0.44 -0.32 l5.96 -1.92 c0.44 -0.16 0.8 -0.24 1.08 -0.24 c0.32 0 0.44 0.2 0.4 0.48 c-0.08 0.68 -0.08 3.2 -0.08 6.72 l0 4.28 c0 1.56 0 3 0.04 3.44 c0.08 0.76 0.28 1.04 0.72 1.04 l1.44 0 c0.32 0 0.4 0.12 0.4 0.36 l0 0.76 z M390.1200000000001 23.12 l0.44 1.72 l0.32 0 c0.44 -0.52 1.16 -1.04 1.92 -1.44 c0.88 -0.48 1.76 -0.76 3.08 -0.76 c1.56 0 3.08 0.16 4.12 1.12 c1.68 1.56 1.8 2.56 1.8 4.56 l0 4.24 c0 1.36 -0.08 3.24 -0.16 4.64 c-0.04 1.2 0.6 1.4 0.96 1.4 l1.08 0 c0.36 0 0.44 0.12 0.44 0.36 l0 0.72 c0 0.28 -0.08 0.44 -0.32 0.44 c-0.28 0 -1.52 -0.12 -4.72 -0.12 c-2.64 0 -3.92 0.12 -4.2 0.12 c-0.24 0 -0.32 -0.12 -0.32 -0.44 l0 -0.72 c0 -0.28 0.12 -0.36 0.52 -0.36 l0.44 0 c0.28 0 0.64 -0.2 0.72 -0.92 c0.16 -1.04 0.24 -2.32 0.24 -4.16 l0 -4.28 c0 -1.52 -0.12 -2.56 -0.96 -3.32 c-0.72 -0.64 -1.28 -0.72 -1.96 -0.72 c-0.72 0 -1.24 0.2 -2.04 0.8 c-0.48 0.36 -0.8 1.44 -0.8 3.08 l-0.08 8.2 c0 0.72 0.28 1.32 0.64 1.32 l0.52 0 c0.32 0 0.4 0.12 0.4 0.4 l0 0.76 c0 0.24 -0.08 0.36 -0.28 0.36 c-0.28 0 -1.36 -0.12 -4 -0.12 c-2.84 0 -4.12 0.12 -4.36 0.12 c-0.2 0 -0.28 -0.12 -0.28 -0.36 l0 -0.8 c0 -0.24 0.08 -0.36 0.4 -0.36 l0.6 0 c0.44 0 1.12 -0.12 1.12 -0.8 l0 -8.88 c0 -1.2 -0.68 -1.88 -1.6 -2.32 l-0.36 -0.16 c-0.24 -0.12 -0.28 -0.28 -0.28 -0.44 l0 -0.36 c0 -0.2 0.16 -0.32 0.36 -0.4 l5.12 -2.32 c0.32 -0.12 0.6 -0.28 0.92 -0.28 c0.24 0 0.48 0.2 0.56 0.48 z M413.40000000000015 50.88 c-1.92 0 -4.84 -0.32 -6.4 -1.24 c-1.48 -0.84 -1.96 -1.88 -1.96 -3.12 c0 -2 2.24 -3.44 4.12 -4.2 l0 -0.2 c-1.84 -0.56 -2.76 -1.8 -2.76 -3.2 c0 -2.32 2.24 -3.6 3.56 -4.24 l0 -0.12 c-1.72 -1 -3.52 -2.68 -3.52 -6.08 c0 -2.6 2.08 -5.84 7.76 -5.84 c3.52 0 5.28 1.84 5.64 2.24 c0.92 -0.76 2.4 -1.4 3.52 -1.4 c1.44 0 2.2 0.8 2.2 2.08 c0 0.92 -0.84 1.72 -1.76 1.72 c-0.68 0 -1 -0.28 -1.24 -0.68 c-0.2 -0.32 -0.68 -0.6 -1.12 -0.6 c-0.2 0 -0.56 0.16 -0.76 0.36 c0.16 0.28 0.48 1.16 0.48 2.6 c0 1.52 -0.44 3 -1.8 4.32 c-1.52 1.44 -3.8 1.92 -5.4 1.92 c-0.8 0 -1.36 0 -2.36 -0.12 c-0.52 0.32 -1.48 1.04 -1.48 1.84 c0 1.4 1.16 1.52 5.48 1.4 c2.72 -0.08 4.76 0.08 6.72 1.6 c1.44 1.16 1.96 2.56 1.96 4.04 c0 1.68 -0.76 3.12 -2.32 4.44 c-1.48 1.2 -4.52 2.56 -8.56 2.48 z M414.00000000000017 24.16 c-0.88 0 -1.4 0.48 -1.96 1.28 s-0.8 2.64 -0.8 4.44 c0 1.16 0.36 2.44 0.88 3.04 c0.44 0.56 1.04 0.8 1.84 0.8 c1.76 0 2.36 -2.68 2.36 -5.76 c0 -1.48 -0.16 -2.32 -0.36 -2.68 c-0.36 -0.68 -0.84 -1.12 -1.96 -1.12 z M414.76000000000016 49.32 c2.64 0 5.24 -1.4 5.24 -3.4 c0 -2.2 -1.56 -3.4 -5.2 -3.24 l-3.48 0.16 c-1.16 0.28 -2 1.52 -2 2.72 c0 1.16 0.64 2.16 1.4 2.72 c1.12 0.8 2.24 1.04 4.04 1.04 z"/></g>
			</g>
		</svg>
	